<svg xmlns="http://www.w3.org/2000/svg" width="1920" height="1080"><path d="M-268,-263L363,-279L598,-316Z" fill="#ffeda3" stroke="#ffeda3" stroke-width="1.51"/><path d="M598,-316L746,-282L1155,-259Z" fill="#ffcc82" stroke="#ffcc82" stroke-width="1.51"/><path d="M1204,1331L964,1327L1311,1342Z" fill="#c93c2c" stroke="#c93c2c" stroke-width="1.51"/><path d="M964,1327L444,1353L1311,1342Z" fill="#c95533" stroke="#c95533" stroke-width="1.51"/><path d="M598,-316L1155,-259L1345,-282Z" fill="#ffbf7c" stroke="#ffbf7c" stroke-width="1.51"/><path d="M1311,1342L444,1353L1528,1358Z" fill="#c7432e" stroke="#c7432e" stroke-width="1.51"/><path d="M444,1353L-47,1377L1528,1358Z" fill="#c76539" stroke="#c76539" stroke-width="1.51"/><path d="M1345,-282L1561,-247L1969,-234Z" fill="#f99968" stroke="#f99968" stroke-width="1.51"/><path d="M2081,93L1988,220L2093,368Z" fill="#d27141" stroke="#d27141" stroke-width="1.51"/><path d="M1940,692L1971,1004L2101,661Z" fill="#d12c28" stroke="#d12c28" stroke-width="1.51"/><path d="M2101,661L1971,1004L2177,996Z" fill="#c31d25" stroke="#c31d25" stroke-width="1.51"/><path d="M2105,560L2101,661L2177,996Z" fill="#c6312a" stroke="#c6312a" stroke-width="1.51"/><path d="M2081,93L2093,368L2178,-166Z" fill="#cd7a4c" stroke="#cd7a4c" stroke-width="1.51"/><path d="M2084,-23L2081,93L2178,-166Z" fill="#ce8058" stroke="#ce8058" stroke-width="1.51"/><path d="M2105,560L2177,996L2178,-166Z" fill="#c65834" stroke="#c65834" stroke-width="1.51"/><path d="M2093,368L2105,560L2178,-166Z" fill="#ca6c3f" stroke="#ca6c3f" stroke-width="1.51"/><path d="M2129,1134L1951,1351L2206,1248Z" fill="#a40026" stroke="#a40026" stroke-width="1.51"/><path d="M2177,996L2129,1134L2206,1248Z" fill="#aa0325" stroke="#aa0325" stroke-width="1.51"/><path d="M2178,-166L2177,996L2206,1248Z" fill="#c1382c" stroke="#c1382c" stroke-width="1.51"/><path d="M1561,-247L1746,-189L1969,-234Z" fill="#f09467" stroke="#f09467" stroke-width="1.51"/><path d="M1949,1147L1951,1351L2129,1134Z" fill="#b10026" stroke="#b10026" stroke-width="1.51"/><path d="M1971,1004L2129,1134L2177,996Z" fill="#b80824" stroke="#b80824" stroke-width="1.51"/><path d="M1969,-234L2084,-23L2178,-166Z" fill="#d48661" stroke="#d48661" stroke-width="1.51"/><path d="M1988,220L1955,289L2093,368Z" fill="#d56c3b" stroke="#d56c3b" stroke-width="1.51"/><path d="M2093,368L1979,513L2105,560Z" fill="#cf5933" stroke="#cf5933" stroke-width="1.51"/><path d="M1971,1004L1949,1147L2129,1134Z" fill="#bb0624" stroke="#bb0624" stroke-width="1.51"/><path d="M1969,-234L1877,-53L2084,-23Z" fill="#de885d" stroke="#de885d" stroke-width="1.51"/><path d="M1979,513L1940,692L2101,661Z" fill="#d3482e" stroke="#d3482e" stroke-width="1.51"/><path d="M1979,513L2101,661L2105,560Z" fill="#ce4d30" stroke="#ce4d30" stroke-width="1.51"/><path d="M1877,-53L2081,93L2084,-23Z" fill="#d98254" stroke="#d98254" stroke-width="1.51"/><path d="M1955,289L1979,513L2093,368Z" fill="#d56336" stroke="#d56336" stroke-width="1.51"/><path d="M1877,-53L1988,220L2081,93Z" fill="#db7f4d" stroke="#db7f4d" stroke-width="1.51"/><path d="M707,1312L444,1353L964,1327Z" fill="#cc6338" stroke="#cc6338" stroke-width="1.51"/><path d="M1675,117L1794,272L1877,-53Z" fill="#ea8449" stroke="#ea8449" stroke-width="1.51"/><path d="M1763,669L1712,933L1940,692Z" fill="#e23227" stroke="#e23227" stroke-width="1.51"/><path d="M1793,1272L1528,1358L1951,1351Z" fill="#b40624" stroke="#b40624" stroke-width="1.51"/><path d="M1949,1147L1793,1272L1951,1351Z" fill="#b50026" stroke="#b50026" stroke-width="1.51"/><path d="M1794,272L1752,505L1955,289Z" fill="#e46b36" stroke="#e46b36" stroke-width="1.51"/><path d="M1940,692L1712,933L1971,1004Z" fill="#d82324" stroke="#d82324" stroke-width="1.51"/><path d="M1763,669L1940,692L1979,513Z" fill="#de4a2e" stroke="#de4a2e" stroke-width="1.51"/><path d="M1752,505L1763,669L1979,513Z" fill="#e2552f" stroke="#e2552f" stroke-width="1.51"/><path d="M1955,289L1752,505L1979,513Z" fill="#e06235" stroke="#e06235" stroke-width="1.51"/><path d="M1794,272L1955,289L1988,220Z" fill="#e1723e" stroke="#e1723e" stroke-width="1.51"/><path d="M1877,-53L1794,272L1988,220Z" fill="#e37e47" stroke="#e37e47" stroke-width="1.51"/><path d="M1746,-189L1877,-53L1969,-234Z" fill="#e98e62" stroke="#e98e62" stroke-width="1.51"/><path d="M1687,1137L1949,1147L1971,1004Z" fill="#c80824" stroke="#c80824" stroke-width="1.51"/><path d="M1712,933L1687,1137L1971,1004Z" fill="#d31021" stroke="#d31021" stroke-width="1.51"/><path d="M1687,1137L1793,1272L1949,1147Z" fill="#c40525" stroke="#c40525" stroke-width="1.51"/><path d="M1746,-189L1681,-76L1877,-53Z" fill="#ee8f5c" stroke="#ee8f5c" stroke-width="1.51"/><path d="M1681,-76L1675,117L1877,-53Z" fill="#ee8b52" stroke="#ee8b52" stroke-width="1.51"/><path d="M1573,753L1712,933L1763,669Z" fill="#e83323" stroke="#e83323" stroke-width="1.51"/><path d="M1675,117L1548,152L1794,272Z" fill="#f08041" stroke="#f08041" stroke-width="1.51"/><path d="M1548,152L1496,352L1794,272Z" fill="#f37a39" stroke="#f37a39" stroke-width="1.51"/><path d="M1496,352L1752,505L1794,272Z" fill="#ed6d32" stroke="#ed6d32" stroke-width="1.51"/><path d="M1687,1137L1528,1358L1793,1272Z" fill="#c30a23" stroke="#c30a23" stroke-width="1.51"/><path d="M1602,940L1687,1137L1712,933Z" fill="#dc171e" stroke="#dc171e" stroke-width="1.51"/><path d="M1573,753L1602,940L1712,933Z" fill="#e72a1f" stroke="#e72a1f" stroke-width="1.51"/><path d="M1752,505L1527,580L1763,669Z" fill="#eb562b" stroke="#eb562b" stroke-width="1.51"/><path d="M1527,580L1573,753L1763,669Z" fill="#ef4a27" stroke="#ef4a27" stroke-width="1.51"/><path d="M1496,352L1527,580L1752,505Z" fill="#f2662d" stroke="#f2662d" stroke-width="1.51"/><path d="M1561,-247L1681,-76L1746,-189Z" fill="#f69461" stroke="#f69461" stroke-width="1.51"/><path d="M1525,15L1675,117L1681,-76Z" fill="#f68d4f" stroke="#f68d4f" stroke-width="1.51"/><path d="M1602,940L1500,1120L1687,1137Z" fill="#db161f" stroke="#db161f" stroke-width="1.51"/><path d="M1500,1120L1528,1358L1687,1137Z" fill="#d01222" stroke="#d01222" stroke-width="1.51"/><path d="M1525,15L1548,152L1675,117Z" fill="#f78b47" stroke="#f78b47" stroke-width="1.51"/><path d="M1561,-247L1525,15L1681,-76Z" fill="#f99459" stroke="#f99459" stroke-width="1.51"/><path d="M1496,352L1404,515L1527,580Z" fill="#f66b30" stroke="#f66b30" stroke-width="1.51"/><path d="M1381,-34L1525,15L1561,-247Z" fill="#fd985a" stroke="#fd985a" stroke-width="1.51"/><path d="M1573,753L1373,912L1602,940Z" fill="#ed3221" stroke="#ed3221" stroke-width="1.51"/><path d="M1373,912L1500,1120L1602,940Z" fill="#e6251e" stroke="#e6251e" stroke-width="1.51"/><path d="M1500,1120L1311,1342L1528,1358Z" fill="#cb2025" stroke="#cb2025" stroke-width="1.51"/><path d="M1397,115L1496,352L1548,152Z" fill="#f98540" stroke="#f98540" stroke-width="1.51"/><path d="M1345,-282L1381,-34L1561,-247Z" fill="#ff9f66" stroke="#ff9f66" stroke-width="1.51"/><path d="M1527,580L1337,804L1573,753Z" fill="#f54a27" stroke="#f54a27" stroke-width="1.51"/><path d="M1337,804L1373,912L1573,753Z" fill="#f33e24" stroke="#f33e24" stroke-width="1.51"/><path d="M1525,15L1397,115L1548,152Z" fill="#fa9049" stroke="#fa9049" stroke-width="1.51"/><path d="M1404,515L1337,804L1527,580Z" fill="#f75b2b" stroke="#f75b2b" stroke-width="1.51"/><path d="M1363,377L1404,515L1496,352Z" fill="#f97433" stroke="#f97433" stroke-width="1.51"/><path d="M1397,115L1363,377L1496,352Z" fill="#fa823b" stroke="#fa823b" stroke-width="1.51"/><path d="M1292,1129L1311,1342L1500,1120Z" fill="#d92927" stroke="#d92927" stroke-width="1.51"/><path d="M1381,-34L1397,115L1525,15Z" fill="#fd9551" stroke="#fd9551" stroke-width="1.51"/><path d="M1219,715L1337,804L1404,515Z" fill="#fb592c" stroke="#fb592c" stroke-width="1.51"/><path d="M1373,912L1292,1129L1500,1120Z" fill="#e42c23" stroke="#e42c23" stroke-width="1.51"/><path d="M1292,1129L1203,1192L1311,1342Z" fill="#d93129" stroke="#d93129" stroke-width="1.51"/><path d="M1155,-259L1137,-86L1345,-282Z" fill="#ffad6e" stroke="#ffad6e" stroke-width="1.51"/><path d="M1345,-282L1137,-86L1381,-34Z" fill="#ffa465" stroke="#ffa465" stroke-width="1.51"/><path d="M1140,310L1363,377L1397,115Z" fill="#fe893e" stroke="#fe893e" stroke-width="1.51"/><path d="M1123,153L1140,310L1397,115Z" fill="#ff9648" stroke="#ff9648" stroke-width="1.51"/><path d="M1381,-34L1123,153L1397,115Z" fill="#ff9a50" stroke="#ff9a50" stroke-width="1.51"/><path d="M1363,377L1109,550L1404,515Z" fill="#fd7534" stroke="#fd7534" stroke-width="1.51"/><path d="M1109,550L1219,715L1404,515Z" fill="#fd6c31" stroke="#fd6c31" stroke-width="1.51"/><path d="M1137,-86L1123,153L1381,-34Z" fill="#ffa359" stroke="#ffa359" stroke-width="1.51"/><path d="M1091,911L1292,1129L1373,912Z" fill="#ef3c23" stroke="#ef3c23" stroke-width="1.51"/><path d="M1140,310L1109,550L1363,377Z" fill="#fe8339" stroke="#fe8339" stroke-width="1.51"/><path d="M1337,804L1091,911L1373,912Z" fill="#f64426" stroke="#f64426" stroke-width="1.51"/><path d="M1203,1192L1204,1331L1311,1342Z" fill="#cf332a" stroke="#cf332a" stroke-width="1.51"/><path d="M1219,715L1091,911L1337,804Z" fill="#fa512a" stroke="#fa512a" stroke-width="1.51"/><path d="M1091,911L1203,1192L1292,1129Z" fill="#e84127" stroke="#e84127" stroke-width="1.51"/><path d="M746,-282L885,-186L1155,-259Z" fill="#ffc57b" stroke="#ffc57b" stroke-width="1.51"/><path d="M1091,911L1017,1195L1203,1192Z" fill="#e64b2b" stroke="#e64b2b" stroke-width="1.51"/><path d="M1203,1192L1017,1195L1204,1331Z" fill="#d7422c" stroke="#d7422c" stroke-width="1.51"/><path d="M1109,550L984,698L1219,715Z" fill="#fd7132" stroke="#fd7132" stroke-width="1.51"/><path d="M984,698L1091,911L1219,715Z" fill="#fc612e" stroke="#fc612e" stroke-width="1.51"/><path d="M1035,-87L1123,153L1137,-86Z" fill="#ffae5f" stroke="#ffae5f" stroke-width="1.51"/><path d="M1017,1195L964,1327L1204,1331Z" fill="#d1492f" stroke="#d1492f" stroke-width="1.51"/><path d="M945,932L1017,1195L1091,911Z" fill="#ee582b" stroke="#ee582b" stroke-width="1.51"/><path d="M1035,-87L995,192L1123,153Z" fill="#ffad58" stroke="#ffad58" stroke-width="1.51"/><path d="M975,518L1109,550L1140,310Z" fill="#fe8a3b" stroke="#fe8a3b" stroke-width="1.51"/><path d="M949,323L975,518L1140,310Z" fill="#fe953f" stroke="#fe953f" stroke-width="1.51"/><path d="M1123,153L995,192L1140,310Z" fill="#ff9f4a" stroke="#ff9f4a" stroke-width="1.51"/><path d="M1035,-87L1137,-86L1155,-259Z" fill="#ffb36b" stroke="#ffb36b" stroke-width="1.51"/><path d="M885,-186L1035,-87L1155,-259Z" fill="#ffbb72" stroke="#ffbb72" stroke-width="1.51"/><path d="M995,192L949,323L1140,310Z" fill="#fe9e46" stroke="#fe9e46" stroke-width="1.51"/><path d="M984,698L945,932L1091,911Z" fill="#f8652e" stroke="#f8652e" stroke-width="1.51"/><path d="M975,518L984,698L1109,550Z" fill="#fd8238" stroke="#fd8238" stroke-width="1.51"/><path d="M195,1330L-47,1377L444,1353Z" fill="#cb7d54" stroke="#cb7d54" stroke-width="1.51"/><path d="M816,146L995,192L1035,-87Z" fill="#ffb55b" stroke="#ffb55b" stroke-width="1.51"/><path d="M781,2L816,146L1035,-87Z" fill="#ffbc63" stroke="#ffbc63" stroke-width="1.51"/><path d="M945,932L760,1110L1017,1195Z" fill="#e95f2f" stroke="#e95f2f" stroke-width="1.51"/><path d="M885,-186L781,2L1035,-87Z" fill="#ffc06d" stroke="#ffc06d" stroke-width="1.51"/><path d="M776,911L945,932L984,698Z" fill="#f96e31" stroke="#f96e31" stroke-width="1.51"/><path d="M803,667L776,911L984,698Z" fill="#fe7835" stroke="#fe7835" stroke-width="1.51"/><path d="M975,518L803,667L984,698Z" fill="#fd8439" stroke="#fd8439" stroke-width="1.51"/><path d="M760,1110L964,1327L1017,1195Z" fill="#dc5a32" stroke="#dc5a32" stroke-width="1.51"/><path d="M949,323L715,393L975,518Z" fill="#fe9d42" stroke="#fe9d42" stroke-width="1.51"/><path d="M816,146L949,323L995,192Z" fill="#ffab4e" stroke="#ffab4e" stroke-width="1.51"/><path d="M760,1110L707,1312L964,1327Z" fill="#d75f34" stroke="#d75f34" stroke-width="1.51"/><path d="M776,911L760,1110L945,932Z" fill="#f2682e" stroke="#f2682e" stroke-width="1.51"/><path d="M723,587L803,667L975,518Z" fill="#fe8e3d" stroke="#fe8e3d" stroke-width="1.51"/><path d="M715,393L723,587L975,518Z" fill="#fe9a41" stroke="#fe9a41" stroke-width="1.51"/><path d="M816,146L715,393L949,323Z" fill="#feab4a" stroke="#feab4a" stroke-width="1.51"/><path d="M746,-282L608,-85L781,2Z" fill="#ffcc75" stroke="#ffcc75" stroke-width="1.51"/><path d="M746,-282L781,2L885,-186Z" fill="#ffc876" stroke="#ffc876" stroke-width="1.51"/><path d="M572,1289L444,1353L707,1312Z" fill="#ce6c3d" stroke="#ce6c3d" stroke-width="1.51"/><path d="M616,995L760,1110L776,911Z" fill="#f06f32" stroke="#f06f32" stroke-width="1.51"/><path d="M494,707L776,911L803,667Z" fill="#ff8239" stroke="#ff8239" stroke-width="1.51"/><path d="M723,587L494,707L803,667Z" fill="#fe903e" stroke="#fe903e" stroke-width="1.51"/><path d="M781,2L544,207L816,146Z" fill="#ffc05e" stroke="#ffc05e" stroke-width="1.51"/><path d="M544,207L715,393L816,146Z" fill="#ffb652" stroke="#ffb652" stroke-width="1.51"/><path d="M551,1166L707,1312L760,1110Z" fill="#df6b37" stroke="#df6b37" stroke-width="1.51"/><path d="M494,707L616,995L776,911Z" fill="#f97e37" stroke="#f97e37" stroke-width="1.51"/><path d="M608,-85L544,207L781,2Z" fill="#ffc867" stroke="#ffc867" stroke-width="1.51"/><path d="M551,1166L572,1289L707,1312Z" fill="#d76c3a" stroke="#d76c3a" stroke-width="1.51"/><path d="M598,-316L608,-85L746,-282Z" fill="#ffd381" stroke="#ffd381" stroke-width="1.51"/><path d="M616,995L551,1166L760,1110Z" fill="#e97036" stroke="#e97036" stroke-width="1.51"/><path d="M544,207L502,289L715,393Z" fill="#feb853" stroke="#feb853" stroke-width="1.51"/><path d="M715,393L499,590L723,587Z" fill="#fea144" stroke="#fea144" stroke-width="1.51"/><path d="M416,470L499,590L715,393Z" fill="#ffab4c" stroke="#ffab4c" stroke-width="1.51"/><path d="M499,590L494,707L723,587Z" fill="#ff9a45" stroke="#ff9a45" stroke-width="1.51"/><path d="M502,289L427,362L715,393Z" fill="#ffb652" stroke="#ffb652" stroke-width="1.51"/><path d="M427,362L416,470L715,393Z" fill="#ffb351" stroke="#ffb351" stroke-width="1.51"/><path d="M-268,-263L167,-194L363,-279Z" fill="#ffefa8" stroke="#ffefa8" stroke-width="1.51"/><path d="M430,169L544,207L608,-85Z" fill="#ffcd69" stroke="#ffcd69" stroke-width="1.51"/><path d="M308,20L430,169L608,-85Z" fill="#ffd575" stroke="#ffd575" stroke-width="1.51"/><path d="M598,-316L363,-279L608,-85Z" fill="#ffdb89" stroke="#ffdb89" stroke-width="1.51"/><path d="M369,976L551,1166L616,995Z" fill="#ef7b3d" stroke="#ef7b3d" stroke-width="1.51"/><path d="M494,707L369,976L616,995Z" fill="#fa853f" stroke="#fa853f" stroke-width="1.51"/><path d="M414,712L369,976L494,707Z" fill="#ff9147" stroke="#ff9147" stroke-width="1.51"/><path d="M363,-279L308,20L608,-85Z" fill="#ffdd84" stroke="#ffdd84" stroke-width="1.51"/><path d="M369,976L305,1125L551,1166Z" fill="#ec8044" stroke="#ec8044" stroke-width="1.51"/><path d="M551,1166L444,1353L572,1289Z" fill="#d67140" stroke="#d67140" stroke-width="1.51"/><path d="M305,1125L444,1353L551,1166Z" fill="#df7945" stroke="#df7945" stroke-width="1.51"/><path d="M430,169L502,289L544,207Z" fill="#ffc560" stroke="#ffc560" stroke-width="1.51"/><path d="M-268,-263L-26,-175L167,-194Z" fill="#fff2ad" stroke="#fff2ad" stroke-width="1.51"/><path d="M414,712L494,707L499,590Z" fill="#ff9c49" stroke="#ff9c49" stroke-width="1.51"/><path d="M430,169L427,362L502,289Z" fill="#ffc25d" stroke="#ffc25d" stroke-width="1.51"/><path d="M416,470L414,712L499,590Z" fill="#ffa74f" stroke="#ffa74f" stroke-width="1.51"/><path d="M167,-194L184,-40L308,20Z" fill="#ffe48e" stroke="#ffe48e" stroke-width="1.51"/><path d="M167,-194L308,20L363,-279Z" fill="#ffe692" stroke="#ffe692" stroke-width="1.51"/><path d="M137,480L135,716L414,712Z" fill="#ffac5b" stroke="#ffac5b" stroke-width="1.51"/><path d="M165,944L369,976L414,712Z" fill="#fc924b" stroke="#fc924b" stroke-width="1.51"/><path d="M135,716L165,944L414,712Z" fill="#ff9b53" stroke="#ff9b53" stroke-width="1.51"/><path d="M137,480L414,712L416,470Z" fill="#ffb259" stroke="#ffb259" stroke-width="1.51"/><path d="M196,341L427,362L430,169Z" fill="#fec763" stroke="#fec763" stroke-width="1.51"/><path d="M305,1125L195,1330L444,1353Z" fill="#d87e4c" stroke="#d87e4c" stroke-width="1.51"/><path d="M196,341L416,470L427,362Z" fill="#ffbf5d" stroke="#ffbf5d" stroke-width="1.51"/><path d="M308,20L166,121L430,169Z" fill="#feda78" stroke="#feda78" stroke-width="1.51"/><path d="M166,121L196,341L430,169Z" fill="#ffd270" stroke="#ffd270" stroke-width="1.51"/><path d="M196,341L137,480L416,470Z" fill="#ffbf62" stroke="#ffbf62" stroke-width="1.51"/><path d="M163,1190L195,1330L305,1125Z" fill="#e18452" stroke="#e18452" stroke-width="1.51"/><path d="M165,944L305,1125L369,976Z" fill="#f48a4a" stroke="#f48a4a" stroke-width="1.51"/><path d="M165,944L163,1190L305,1125Z" fill="#ee8950" stroke="#ee8950" stroke-width="1.51"/><path d="M184,-40L166,121L308,20Z" fill="#ffe083" stroke="#ffe083" stroke-width="1.51"/><path d="M-14,517L135,716L137,480Z" fill="#ffb867" stroke="#ffb867" stroke-width="1.51"/><path d="M-91,1067L163,1190L165,944Z" fill="#f18f58" stroke="#f18f58" stroke-width="1.51"/><path d="M28,896L-91,1067L165,944Z" fill="#fa945a" stroke="#fa945a" stroke-width="1.51"/><path d="M135,716L28,896L165,944Z" fill="#ff9a59" stroke="#ff9a59" stroke-width="1.51"/><path d="M167,-194L44,-94L184,-40Z" fill="#ffe897" stroke="#ffe897" stroke-width="1.51"/><path d="M44,-94L166,121L184,-40Z" fill="#ffe48d" stroke="#ffe48d" stroke-width="1.51"/><path d="M163,1190L-47,1377L195,1330Z" fill="#d48359" stroke="#d48359" stroke-width="1.51"/><path d="M-16,279L137,480L196,341Z" fill="#ffc96e" stroke="#ffc96e" stroke-width="1.51"/><path d="M25,225L-16,279L196,341Z" fill="#ffd176" stroke="#ffd176" stroke-width="1.51"/><path d="M166,121L25,225L196,341Z" fill="#ffd377" stroke="#ffd377" stroke-width="1.51"/><path d="M-14,517L-65,687L135,716Z" fill="#ffb268" stroke="#ffb268" stroke-width="1.51"/><path d="M44,-94L25,225L166,121Z" fill="#ffe288" stroke="#ffe288" stroke-width="1.51"/><path d="M-26,-175L44,-94L167,-194Z" fill="#ffeda0" stroke="#ffeda0" stroke-width="1.51"/><path d="M-16,279L-14,517L137,480Z" fill="#ffc671" stroke="#ffc671" stroke-width="1.51"/><path d="M-91,1067L-47,1377L163,1190Z" fill="#e38b5f" stroke="#e38b5f" stroke-width="1.51"/><path d="M-65,687L28,896L135,716Z" fill="#ffa362" stroke="#ffa362" stroke-width="1.51"/><path d="M-91,1067L-254,1260L-47,1377Z" fill="#e18d68" stroke="#e18d68" stroke-width="1.51"/><path d="M-26,-175L-265,-8L44,-94Z" fill="#ffeea4" stroke="#ffeea4" stroke-width="1.51"/><path d="M-265,-8L-226,120L44,-94Z" fill="#ffec9f" stroke="#ffec9f" stroke-width="1.51"/><path d="M-226,120L25,225L44,-94Z" fill="#ffe591" stroke="#ffe591" stroke-width="1.51"/><path d="M-16,279L-207,273L-14,517Z" fill="#ffcf7b" stroke="#ffcf7b" stroke-width="1.51"/><path d="M-207,273L-223,536L-14,517Z" fill="#ffca7d" stroke="#ffca7d" stroke-width="1.51"/><path d="M-226,120L-16,279L25,225Z" fill="#ffdc87" stroke="#ffdc87" stroke-width="1.51"/><path d="M-222,983L-91,1067L28,896Z" fill="#fa9761" stroke="#fa9761" stroke-width="1.51"/><path d="M-65,687L-245,727L28,896Z" fill="#ffa669" stroke="#ffa669" stroke-width="1.51"/><path d="M-245,727L-222,983L28,896Z" fill="#ffa16a" stroke="#ffa16a" stroke-width="1.51"/><path d="M-226,120L-207,273L-16,279Z" fill="#ffdc8b" stroke="#ffdc8b" stroke-width="1.51"/><path d="M-223,536L-65,687L-14,517Z" fill="#ffbc73" stroke="#ffbc73" stroke-width="1.51"/><path d="M-268,-263L-265,-8L-26,-175Z" fill="#fff3b0" stroke="#fff3b0" stroke-width="1.51"/><path d="M-275,1087L-254,1260L-91,1067Z" fill="#ed946c" stroke="#ed946c" stroke-width="1.51"/><path d="M-223,536L-245,727L-65,687Z" fill="#ffb675" stroke="#ffb675" stroke-width="1.51"/><path d="M-222,983L-275,1087L-91,1067Z" fill="#f5976a" stroke="#f5976a" stroke-width="1.51"/><path d="M-245,727L-275,1087L-222,983Z" fill="#ff9f6e" stroke="#ff9f6e" stroke-width="1.51"/><path d="M-265,-8L-223,536L-207,273Z" fill="#ffdb8c" stroke="#ffdb8c" stroke-width="1.51"/><path d="M-226,120L-265,-8L-207,273Z" fill="#ffe79a" stroke="#ffe79a" stroke-width="1.51"/><path d="M-265,-8L-245,727L-223,536Z" fill="#ffcf84" stroke="#ffcf84" stroke-width="1.51"/><path d="M-265,-8L-275,1087L-245,727Z" fill="#ffbe7e" stroke="#ffbe7e" stroke-width="1.51"/></svg>